<svg xmlns="http://www.w3.org/2000/svg"  viewBox="0 0 100 100" width="48px" height="48px"><path fill="#c7ede6" d="M87.215,56.71C88.35,54.555,89,52.105,89,49.5c0-6.621-4.159-12.257-10.001-14.478	C78.999,35.015,79,35.008,79,35c0-11.598-9.402-21-21-21c-9.784,0-17.981,6.701-20.313,15.757C36.211,29.272,34.638,29,33,29	c-7.692,0-14.023,5.793-14.89,13.252C12.906,43.353,9,47.969,9,53.5C9,59.851,14.149,65,20.5,65c0.177,0,0.352-0.012,0.526-0.022	C21.022,65.153,21,65.324,21,65.5C21,76.822,30.178,86,41.5,86c6.437,0,12.175-2.972,15.934-7.614C59.612,80.611,62.64,82,66,82	c4.65,0,8.674-2.65,10.666-6.518C77.718,75.817,78.837,76,80,76c6.075,0,11-4.925,11-11C91,61.689,89.53,58.727,87.215,56.71z"/><path fill="#fdfcef" d="M78.875,57.5c0,0,3.64,0,6.125,0s4.5-2.015,4.5-4.5c0-2.333-1.782-4.229-4.055-4.455	C85.467,48.364,85.5,48.187,85.5,48c0-2.485-2.015-4.5-4.5-4.5c-1.438,0-2.703,0.686-3.527,1.736C77.333,42.6,75.171,40.5,72.5,40.5	c-2.761,0-5,2.239-5,5c0,0.446,0.077,0.87,0.187,1.282C67.045,46.005,66.087,45.5,65,45.5c-1.781,0-3.234,1.335-3.455,3.055	C61.364,48.533,61.187,48.5,61,48.5c-2.485,0-4.5,2.015-4.5,4.5s2.015,4.5,4.5,4.5s9.5,0,9.5,0h5.375V58h3V57.5z"/><path fill="#472b29" d="M72.5,40c-3.033,0-5.5,2.467-5.5,5.5c0,0.016,0,0.031,0,0.047C66.398,45.192,65.71,45,65,45	c-1.831,0-3.411,1.261-3.858,3.005C61.095,48.002,61.048,48,61,48c-2.757,0-5,2.243-5,5s2.243,5,5,5h14.875	c0.276,0,0.5-0.224,0.5-0.5s-0.224-0.5-0.5-0.5H61c-2.206,0-4-1.794-4-4s1.794-4,4-4c0.117,0,0.23,0.017,0.343,0.032l0.141,0.019	c0.021,0.003,0.041,0.004,0.062,0.004c0.246,0,0.462-0.185,0.495-0.437C62.232,47.125,63.504,46,65,46	c0.885,0,1.723,0.401,2.301,1.1c0.098,0.118,0.241,0.182,0.386,0.182c0.078,0,0.156-0.018,0.228-0.056	c0.209-0.107,0.314-0.346,0.254-0.573C68.054,46.218,68,45.852,68,45.5c0-2.481,2.019-4.5,4.5-4.5c2.381,0,4.347,1.872,4.474,4.263	c0.011,0.208,0.15,0.387,0.349,0.45c0.05,0.016,0.101,0.024,0.152,0.024c0.15,0,0.296-0.069,0.392-0.192	C78.638,44.563,79.779,44,81,44c2.206,0,4,1.794,4,4c0,0.117-0.017,0.23-0.032,0.343l-0.019,0.141	c-0.016,0.134,0.022,0.268,0.106,0.373c0.084,0.105,0.207,0.172,0.34,0.185C87.451,49.247,89,50.949,89,53c0,2.206-1.794,4-4,4	h-6.125c-0.276,0-0.5,0.224-0.5,0.5s0.224,0.5,0.5,0.5H85c2.757,0,5-2.243,5-5c0-2.397-1.689-4.413-4.003-4.877	C85.999,48.082,86,48.041,86,48c0-2.757-2.243-5-5-5c-1.176,0-2.293,0.416-3.183,1.164C77.219,41.76,75.055,40,72.5,40L72.5,40z"/><path fill="#472b29" d="M71,47c-1.403,0-2.609,0.999-2.913,2.341C67.72,49.119,67.301,49,66.875,49	c-1.202,0-2.198,0.897-2.353,2.068C64.319,51.022,64.126,51,63.937,51c-1.529,0-2.811,1.2-2.918,2.732	C61.01,53.87,61.114,53.99,61.251,54c0.006,0,0.012,0,0.018,0c0.13,0,0.24-0.101,0.249-0.232c0.089-1.271,1.151-2.268,2.419-2.268	c0.229,0,0.47,0.042,0.738,0.127c0.022,0.007,0.045,0.01,0.067,0.01c0.055,0,0.11-0.02,0.156-0.054	C64.962,51.537,65,51.455,65,51.375c0-1.034,0.841-1.875,1.875-1.875c0.447,0,0.885,0.168,1.231,0.473	c0.047,0.041,0.106,0.063,0.165,0.063c0.032,0,0.063-0.006,0.093-0.019c0.088-0.035,0.148-0.117,0.155-0.212	C68.623,48.512,69.712,47.5,71,47.5c0.208,0,0.425,0.034,0.682,0.107c0.023,0.007,0.047,0.01,0.07,0.01	c0.109,0,0.207-0.073,0.239-0.182c0.038-0.133-0.039-0.271-0.172-0.309C71.517,47.04,71.256,47,71,47L71,47z"/><path fill="#472b29" d="M84.883,48.5c-1.326,0-2.508,0.897-2.874,2.182c-0.038,0.133,0.039,0.271,0.172,0.309	C82.205,50.997,82.228,51,82.25,51c0.109,0,0.209-0.072,0.24-0.182C82.795,49.748,83.779,49,84.883,49	c0.117,0,0.23,0.014,0.342,0.029c0.012,0.002,0.023,0.003,0.035,0.003c0.121,0,0.229-0.092,0.246-0.217	c0.019-0.137-0.077-0.263-0.214-0.281C85.158,48.516,85.022,48.5,84.883,48.5L84.883,48.5z"/><path fill="#fff" d="M14.405,51H4.5C4.224,51,4,50.776,4,50.5S4.224,50,4.5,50h9.905c0.276,0,0.5,0.224,0.5,0.5	S14.682,51,14.405,51z"/><path fill="#fff" d="M17.5,51h-1c-0.276,0-0.5-0.224-0.5-0.5s0.224-0.5,0.5-0.5h1c0.276,0,0.5,0.224,0.5,0.5	S17.777,51,17.5,51z"/><path fill="#fff" d="M22.491,53H13.5c-0.276,0-0.5-0.224-0.5-0.5s0.224-0.5,0.5-0.5h8.991c0.276,0,0.5,0.224,0.5,0.5	S22.767,53,22.491,53z"/><path fill="#fff" d="M11.5,53h-1c-0.276,0-0.5-0.224-0.5-0.5s0.224-0.5,0.5-0.5h1c0.276,0,0.5,0.224,0.5,0.5	S11.777,53,11.5,53z"/><path fill="#fff" d="M8.5,53h-2C6.224,53,6,52.776,6,52.5S6.224,52,6.5,52h2C8.776,52,9,52.224,9,52.5S8.777,53,8.5,53z"/><path fill="#fff" d="M14.5,55h-2c-0.276,0-0.5-0.224-0.5-0.5s0.224-0.5,0.5-0.5h2c0.276,0,0.5,0.224,0.5,0.5	S14.776,55,14.5,55z"/><path fill="#fff" d="M17.5,46c-0.177,0-0.823,0-1,0c-0.276,0-0.5,0.224-0.5,0.5s0.224,0.5,0.5,0.5c0.177,0,0.823,0,1,0	c0.276,0,0.5-0.224,0.5-0.5S17.776,46,17.5,46z"/><path fill="#fff" d="M17.5,48c-0.177,0-4.823,0-5,0c-0.276,0-0.5,0.224-0.5,0.5s0.224,0.5,0.5,0.5c0.177,0,4.823,0,5,0	c0.276,0,0.5-0.224,0.5-0.5S17.776,48,17.5,48z"/><path fill="#fff" d="M22.5,50c-0.177,0-2.823,0-3,0c-0.276,0-0.5,0.224-0.5,0.5s0.224,0.5,0.5,0.5c0.177,0,2.823,0,3,0	c0.276,0,0.5-0.224,0.5-0.5S22.776,50,22.5,50z"/><path fill="#fff" d="M70.5,20h-10c-0.276,0-0.5-0.224-0.5-0.5s0.224-0.5,0.5-0.5h10c0.276,0,0.5,0.224,0.5,0.5	S70.776,20,70.5,20z"/><path fill="#fff" d="M74.5,20h-2c-0.276,0-0.5-0.224-0.5-0.5s0.224-0.5,0.5-0.5h2c0.276,0,0.5,0.224,0.5,0.5	S74.776,20,74.5,20z"/><path fill="#fff" d="M79.5,22h-10c-0.276,0-0.5-0.224-0.5-0.5s0.224-0.5,0.5-0.5h10c0.276,0,0.5,0.224,0.5,0.5	S79.777,22,79.5,22z"/><path fill="#fff" d="M67.5,22h-1c-0.276,0-0.5-0.224-0.5-0.5s0.224-0.5,0.5-0.5h1c0.276,0,0.5,0.224,0.5,0.5	S67.776,22,67.5,22z"/><path fill="#fff" d="M64.47,22H62.5c-0.276,0-0.5-0.224-0.5-0.5s0.224-0.5,0.5-0.5h1.97c0.276,0,0.5,0.224,0.5,0.5	S64.746,22,64.47,22z"/><path fill="#fff" d="M73.5,18h-5c-0.276,0-0.5-0.224-0.5-0.5s0.224-0.5,0.5-0.5h5c0.276,0,0.5,0.224,0.5,0.5	S73.777,18,73.5,18z"/><path fill="#fff" d="M70.5,24h-2c-0.276,0-0.5-0.224-0.5-0.5s0.224-0.5,0.5-0.5h2c0.276,0,0.5,0.224,0.5,0.5	S70.776,24,70.5,24z"/><path fill="#6f73ad" d="M37.873,28.752l-9.137,9.137v32.892H39.7v9.137l9.137-9.137h7.309l16.446-16.446V28.752H37.873z"/><path fill="none" stroke="#472b29" stroke-linecap="round" stroke-linejoin="round" stroke-miterlimit="10" stroke-width="1.4" d="M37.873,28.752l-9.137,9.137v32.892H39.7v9.137l9.137-9.137h7.309l16.446-16.446V28.752H37.873z"/><polygon fill="#fff" points="68.165,52.414 60.855,59.724 53.546,59.724 47.15,66.119 47.15,59.724 38.928,59.724 38.928,32.314 68.165,32.314"/><rect width="3.655" height="10.964" x="59.028" y="38.71" fill="#6f73ad"/><rect width="3.655" height="10.964" x="48.978" y="38.71" fill="#6f73ad"/><polyline fill="none" stroke="#472b29" stroke-linecap="round" stroke-linejoin="round" stroke-miterlimit="10" points="68.165,49.511 68.165,52.414 60.855,59.724 53.546,59.724 47.15,66.119 47.15,59.724 38.928,59.724 38.928,44.03 38.928,40.511"/><line x1="68.165" x2="68.165" y1="43.511" y2="46.495" fill="none" stroke="#472b29" stroke-linecap="round" stroke-linejoin="round" stroke-miterlimit="10"/><polyline fill="none" stroke="#472b29" stroke-linecap="round" stroke-linejoin="round" stroke-miterlimit="10" points="38.928,37.495 38.928,32.314 68.165,32.314 68.165,40.495"/><polyline fill="none" stroke="#472b29" stroke-linecap="round" stroke-linejoin="round" stroke-miterlimit="10" stroke-width=".5" points="62.683,43.251 62.683,49.673 59.028,49.673 59.028,38.71 62.683,38.71 62.683,40.742"/><polyline fill="none" stroke="#472b29" stroke-linecap="round" stroke-linejoin="round" stroke-miterlimit="10" stroke-width=".5" points="48.978,41.747 48.978,38.71 52.632,38.71 52.632,49.673 48.978,49.673 48.978,48.258"/><line x1="48.978" x2="48.978" y1="45.749" y2="44.253" fill="none" stroke="#472b29" stroke-linecap="round" stroke-linejoin="round" stroke-miterlimit="10" stroke-width=".5"/><g><path fill="#fdfcef" d="M17.5,73.5c0,0-1.567,0-3.5,0s-3.5-1.567-3.5-3.5c0-1.781,1.335-3.234,3.055-3.455 C13.527,66.366,13.5,66.187,13.5,66c0-1.933,1.567-3.5,3.5-3.5c1.032,0,1.95,0.455,2.59,1.165c0.384-1.808,1.987-3.165,3.91-3.165 c2.209,0,4,1.791,4,4c0,0.191-0.03,0.374-0.056,0.558C27.872,64.714,28.408,64.5,29,64.5c1.228,0,2.245,0.887,2.455,2.055 C31.634,66.527,31.813,66.5,32,66.5c1.933,0,3.5,1.567,3.5,3.5s-1.567,3.5-3.5,3.5s-7.5,0-7.5,0V74h-7V73.5z"/><path fill="#472b29" d="M15.75,69c0.138,0,0.25-0.112,0.25-0.25c0-1.223-0.995-2.218-2.218-2.218 c-0.034,0.009-0.737-0.001-1.244,0.136c-0.133,0.036-0.212,0.173-0.176,0.306c0.036,0.134,0.173,0.213,0.306,0.176 c0.444-0.12,1.1-0.12,1.113-0.118c0.948,0,1.719,0.771,1.719,1.718C15.5,68.888,15.612,69,15.75,69z"/><circle cx="22.5" cy="73.5" r=".5" fill="#472b29"/><path fill="#472b29" d="M14,74h3.5c0.276,0,0.5-0.224,0.5-0.5S17.776,73,17.5,73H14c-1.654,0-3-1.346-3-3 c0-1.496,1.125-2.768,2.618-2.959c0.134-0.018,0.255-0.088,0.336-0.196s0.115-0.244,0.094-0.377C14.025,66.314,14,66.16,14,66 c0-1.654,1.346-3,3-3c0.85,0,1.638,0.355,2.219,1c0.125,0.139,0.321,0.198,0.5,0.148c0.182-0.049,0.321-0.195,0.36-0.379 C20.42,62.165,21.859,61,23.5,61c1.93,0,3.5,1.57,3.5,3.5c0,0.143-0.021,0.28-0.041,0.418c-0.029,0.203,0.063,0.438,0.242,0.54 s0.396,0.118,0.556-0.01C28.122,65.155,28.551,65,29,65c0.966,0,1.792,0.691,1.963,1.644c0.048,0.267,0.296,0.446,0.569,0.405 C31.686,67.025,31.84,67,32,67c1.654,0,3,1.346,3,3s-1.346,3-3,3h-7.5c-0.276,0-0.5,0.224-0.5,0.5s0.224,0.5,0.5,0.5H32 c2.206,0,4-1.794,4-4s-1.794-4-4-4c-0.059,0-0.116,0.002-0.174,0.006C31.412,64.82,30.289,64,29,64 c-0.349,0-0.689,0.061-1.011,0.18C27.824,61.847,25.874,60,23.5,60c-1.831,0-3.466,1.127-4.153,2.774 C18.667,62.276,17.845,62,17,62c-2.206,0-4,1.794-4,4c0,0.048,0.001,0.095,0.004,0.142C11.261,66.59,10,68.169,10,70 C10,72.206,11.794,74,14,74z"/><path fill="#472b29" d="M19.5,73c0.159,0,0.841,0,1,0c0.276,0,0.5,0.224,0.5,0.5S20.776,74,20.5,74c-0.159,0-0.841,0-1,0 c-0.276,0-0.5-0.224-0.5-0.5S19.224,73,19.5,73z"/></g></svg>